<?xml version="1.0" standalone="no"?>
<!DOCTYPE svg PUBLIC "-//W3C//DTD SVG 20010904//EN"
 "http://www.w3.org/TR/2001/REC-SVG-20010904/DTD/svg10.dtd">
<svg version="1.0" xmlns="http://www.w3.org/2000/svg"
 width="1600.000000pt" height="1600.000000pt" viewBox="0 0 1600.000000 1600.000000"
 preserveAspectRatio="xMidYMid meet">
<metadata>
Created by potrace 1.14, written by Peter Selinger 2001-2017
</metadata>
<g transform="translate(0.000000,1600.000000) scale(0.100000,-0.100000)"
fill="#000000" stroke="none">
<path d="M0 8000 l0 -4400 2006 0 2006 0 377 375 c1145 1142 2085 2075 2088
2075 3 0 28 -22 56 -49 60 -57 108 -101 242 -226 54 -49 119 -110 145 -135 75
-72 79 -75 79 -53 0 10 2 99 5 198 3 99 8 270 11 380 3 110 7 268 10 350 3 83
7 242 10 354 3 112 8 207 11 212 3 5 0 9 -6 9 -6 0 -8 5 -4 12 5 7 9 74 11
149 l2 137 -72 -4 c-39 -2 -107 -6 -151 -9 -43 -3 -115 -8 -160 -10 -44 -2
-81 -4 -81 -5 0 -1 -29 -3 -65 -5 -36 -1 -114 -6 -175 -10 -60 -4 -137 -8
-170 -10 -70 -3 -240 -15 -305 -20 -25 -2 -97 -7 -160 -10 -63 -3 -140 -8
-170 -10 -106 -7 -285 -17 -302 -17 -11 1 -15 -5 -11 -14 3 -8 8 -14 12 -14 4
0 38 -30 77 -67 38 -38 117 -112 175 -165 57 -53 135 -125 172 -160 l68 -64
-423 -421 c-233 -232 -723 -721 -1089 -1085 l-666 -663 -1254 1 c-690 1 -1257
2 -1261 3 -5 0 -8 1518 -8 3371 0 1854 3 3371 8 3371 4 1 581 2 1282 3 l1275
2 60 -57 c33 -32 268 -264 522 -516 254 -252 789 -782 1189 -1178 399 -396
1289 -1281 1977 -1967 688 -687 1255 -1248 1259 -1248 4 0 8 -4 8 -8 0 -10
550 -562 550 -553 0 3 5 -1 10 -9 16 -27 470 -477 475 -472 3 3 5 1 5 -5 0 -5
122 -131 271 -279 149 -148 277 -276 286 -284 8 -8 281 -282 606 -607 l592
-593 2298 0 2297 0 0 4400 0 4400 -2214 0 -2214 0 -55 -52 c-30 -29 -104 -99
-164 -155 -59 -56 -133 -125 -164 -155 -82 -78 -228 -216 -384 -363 -76 -71
-159 -150 -185 -175 -26 -25 -107 -101 -179 -170 -73 -69 -156 -147 -185 -175
-68 -65 -328 -311 -386 -365 -25 -23 -105 -99 -178 -168 -74 -70 -158 -149
-187 -177 -29 -27 -117 -111 -196 -186 -79 -75 -164 -155 -189 -178 -25 -24
-110 -105 -190 -180 -80 -76 -163 -155 -185 -175 -22 -21 -105 -99 -184 -174
-167 -159 -296 -281 -398 -378 -40 -37 -73 -72 -73 -77 0 -5 179 -186 397
-402 l396 -394 27 22 c15 12 26 23 25 25 -2 2 11 17 28 33 18 17 445 441 950
942 505 502 1176 1169 1492 1482 l574 570 1488 0 1488 0 3 -240 c3 -289 3
-232 1 -406 -1 -81 1 -151 5 -157 3 -6 3 -13 -2 -16 -9 -5 -6 -81 4 -98 4 -6
3 -9 -2 -5 -10 6 -10 -273 0 -298 3 -8 2 -15 -2 -15 -4 0 -6 -118 -4 -262 1
-145 3 -270 2 -278 -2 -177 -1 -291 5 -299 3 -6 3 -11 -2 -11 -9 0 -8 -211 1
-235 3 -8 2 -15 -2 -15 -8 0 -7 -362 1 -384 3 -9 3 -17 -1 -20 -9 -5 -6 -82 4
-98 4 -6 3 -9 -2 -5 -10 6 -10 -273 0 -298 3 -8 2 -15 -2 -15 -4 0 -6 -118 -4
-262 1 -145 3 -270 2 -278 -2 -177 -1 -291 5 -299 3 -6 3 -11 -2 -11 -9 0 -8
-211 1 -235 3 -8 2 -15 -2 -15 -8 0 -7 -362 1 -384 3 -9 3 -17 -1 -20 -9 -5
-6 -82 4 -98 4 -6 3 -9 -2 -5 -10 6 -10 -273 0 -298 3 -8 2 -15 -2 -15 -8 0
-7 -502 1 -524 4 -9 3 -17 -1 -20 -9 -5 -6 -82 4 -98 4 -6 3 -9 -2 -5 -10 6
-10 -273 0 -298 3 -8 2 -15 -2 -15 -8 0 -7 -293 2 -315 3 -9 2 -14 -2 -11 -8
5 -7 -256 1 -278 4 -9 3 -16 -1 -16 -4 0 -7 -21 -7 -47 l0 -48 -1548 0 -1548
0 -33 35 c-18 19 -174 172 -346 340 -172 168 -393 384 -491 480 -98 96 -201
197 -229 223 -27 27 -50 53 -50 58 0 5 -4 9 -9 9 -6 0 -92 81 -193 180 -100
99 -183 180 -184 180 0 0 -263 260 -582 578 -320 317 -582 575 -582 572 0 -3
-9 9 -20 25 -11 17 -20 27 -20 22 0 -4 -17 12 -37 35 -21 24 -45 48 -53 55 -8
6 -296 291 -639 632 -344 342 -628 621 -633 621 -4 0 -8 3 -8 8 0 10 14 -4
-986 989 -1011 1003 -1968 1954 -2440 2423 l-311 310 -2007 0 -2006 0 0 -4400z"/>
</g>
</svg>
